<svg width="25" height="25" viewBox="0 0 25 25" fill="none" xmlns="http://www.w3.org/2000/svg">
<path d="M11.6157 24.9839C5.39323 24.8323 0.359457 19.7872 0.20818 13.5507C0.200562 13.2434 0.446795 12.989 0.753703 12.989H4.30709C4.72772 12.989 5.08932 13.3094 5.11789 13.7299C5.17475 14.5714 5.38344 15.3835 5.73796 16.1432C5.76843 16.2089 5.7717 16.2839 5.74694 16.3521C5.72245 16.42 5.67185 16.4754 5.60627 16.5059L3.88373 17.3109C4.74949 19.0302 6.14826 20.4321 7.86401 21.3001L8.66719 19.5734C8.69766 19.508 8.75289 19.457 8.82064 19.4325C8.88812 19.4071 8.96321 19.4106 9.02906 19.4415C9.78708 19.7968 10.5973 20.0059 11.4367 20.0629C11.8565 20.0918 12.1762 20.4529 12.1762 20.8745V24.1383C12.1762 24.7459 11.9224 24.9916 11.6157 24.9839ZM10.5437 9.71666H8.91125C8.61087 9.71666 8.36708 9.961 8.36708 10.2621C8.36708 10.5631 8.61087 10.8074 8.91125 10.8074H10.5437C10.8438 10.8074 11.0879 11.052 11.0879 11.3528V11.8982C11.0879 12.199 10.8438 12.4436 10.5437 12.4436H9.99957C9.09925 12.4436 8.36708 13.1774 8.36708 14.0798V15.7159C8.36708 16.017 8.61087 16.2613 8.91125 16.2613H11.6321C11.9324 16.2613 12.1762 16.017 12.1762 15.7159C12.1762 15.4149 11.9324 15.1705 11.6321 15.1705H9.45541V14.0798C9.45541 13.779 9.69947 13.5344 9.99957 13.5344H10.5437C11.4441 13.5344 12.1762 12.8006 12.1762 11.8982V11.3528C12.1762 10.4505 11.4441 9.71666 10.5437 9.71666ZM15.9854 15.7159C15.9854 16.017 16.2291 16.2613 16.5295 16.2613C16.8299 16.2613 17.0737 16.017 17.0737 15.7159V10.2621C17.0737 9.961 16.8299 9.71666 16.5295 9.71666C16.2291 9.71666 15.9854 9.961 15.9854 10.2621V12.4436H14.3529V10.2621C14.3529 9.961 14.1091 9.71666 13.8087 9.71666C13.5083 9.71666 13.2645 9.961 13.2645 10.2621V12.989C13.2645 13.29 13.5083 13.5344 13.8087 13.5344H15.9854V15.7159ZM12.1762 0.990479C6.76235 0.990479 2.00582 4.6473 0.6095 9.88301C0.531957 10.174 0.704456 10.4731 0.994767 10.5508C1.28481 10.6286 1.58328 10.4557 1.66109 10.1647C2.11792 8.45137 2.97225 6.92538 4.10629 5.67235L5.24985 6.81848C5.35623 6.9251 5.49527 6.97828 5.63457 6.97828C5.77388 6.97828 5.91291 6.9251 6.01929 6.81848C6.23179 6.60551 6.23179 6.26028 6.01929 6.0473L4.87492 4.90035C6.6995 3.24947 9.07096 2.22442 11.6321 2.09625V3.71741C11.6321 4.01847 11.8758 4.2628 12.1762 4.2628C12.4766 4.2628 12.7204 4.01847 12.7204 3.71741V2.09516C15.3117 2.2236 17.6674 3.26501 19.4737 4.90417L18.3329 6.04758C18.1204 6.26055 18.1204 6.60578 18.3329 6.81875C18.4393 6.92538 18.5783 6.97855 18.7176 6.97855C18.8569 6.97855 18.9959 6.92538 19.1023 6.81875L20.2432 5.67535C21.8786 7.48549 22.9174 9.84647 23.0459 12.4436H21.427C21.1266 12.4436 20.8828 12.6879 20.8828 12.989C20.8828 13.29 21.1266 13.5344 21.427 13.5344H23.0445C22.9169 16.1012 21.8939 18.478 20.2467 20.3064L19.1023 19.1595C18.8898 18.9465 18.5454 18.9465 18.3329 19.1595C18.1204 19.3725 18.1204 19.7177 18.3329 19.9307L19.4764 21.0768C18.226 22.2134 16.7037 23.0696 14.9939 23.5275C14.7036 23.6055 14.5311 23.9044 14.6086 24.1953C14.6737 24.4391 14.8938 24.6 15.1343 24.6C15.1808 24.6 15.2282 24.594 15.2752 24.5814C20.4992 23.1823 24.1478 18.415 24.1478 12.989C24.1478 6.3729 18.7775 0.990479 12.1762 0.990479Z" fill="#363E49"/>
</svg>
