<svg width="25" height="25" viewBox="0 0 25 25" fill="none" xmlns="http://www.w3.org/2000/svg">
<path d="M11.6724 11.7387L8.06328 11.7387C7.80504 11.7387 7.5957 11.9485 7.5957 12.2073C7.5957 12.4661 7.80504 12.6759 8.06328 12.6759L12.2715 12.6759C12.4517 12.6759 12.6699 12.4833 12.6699 12.2334L12.6699 7.35969C12.6699 6.80515 12.2714 6.80515 12.2023 6.80515C11.8048 6.80515 11.6724 7.12537 11.6724 7.35969L11.6724 11.7387Z" fill="#363E49"/>
<path d="M12.1779 3.07251C7.12463 3.07251 3.01349 7.1929 3.01349 12.2576C3.01349 17.3222 7.12463 21.4426 12.1779 21.4426C17.2312 21.4426 21.3424 17.3222 21.3424 12.2576C21.3424 7.1929 17.2312 3.07251 12.1779 3.07251ZM19.4721 12.7257L20.3937 12.7262C20.2857 14.648 19.5183 16.3958 18.3152 17.7458L17.6552 17.0844C17.4726 16.9014 17.1765 16.9014 16.9939 17.0844C16.8113 17.2674 16.8113 17.5641 16.9939 17.7472L17.6539 18.4086C16.3069 19.6145 14.563 20.3836 12.6455 20.4918V19.5681C12.6455 19.3093 12.4362 19.0995 12.1779 19.0995C11.9197 19.0995 11.7104 19.3093 11.7104 19.5681V20.4918C9.79289 20.3836 8.04903 19.6145 6.70199 18.4086L7.36198 17.7472C7.54456 17.5642 7.54456 17.2674 7.36198 17.0844C7.17939 16.9014 6.88332 16.9014 6.70068 17.0844L6.0407 17.7458C4.83754 16.3958 4.07016 14.648 3.9622 12.7262H4.88379C5.14203 12.7262 5.35136 12.5164 5.35136 12.2576C5.35136 11.9988 5.14203 11.7889 4.88379 11.7889H3.9622C4.07016 9.86716 4.83754 8.11937 6.0407 6.76931L6.70068 7.43078C6.88327 7.61377 7.17934 7.61377 7.36198 7.43078C7.54456 7.24778 7.54456 6.95104 7.36198 6.768L6.70199 6.10653C8.04903 4.90067 9.79289 4.13156 11.7104 4.02335V4.94701C11.7104 5.20583 11.9197 5.41564 12.1779 5.41564C12.4362 5.41564 12.6455 5.20583 12.6455 4.94701V4.02335C14.563 4.13156 16.3069 4.90067 17.6539 6.10653L16.9939 6.768C16.8113 6.951 16.8113 7.24773 16.9939 7.43078C17.1765 7.61377 17.4726 7.61377 17.6552 7.43078L18.3152 6.76931C19.5183 8.11937 20.2858 9.86716 20.3937 11.7889H19.4721C19.2139 11.7889 19.0045 11.9988 19.0045 12.2576C19.0045 12.5164 19.2139 12.7257 19.4721 12.7257Z" fill="#363E49"/>
<path d="M20.3138 20.8798C20.572 20.8798 20.7813 20.6699 20.7813 20.411C20.7813 20.1521 20.572 19.9423 20.3138 19.9423C20.0555 19.9423 19.8462 20.1521 19.8462 20.411C19.8462 20.6699 20.0555 20.8798 20.3138 20.8798Z" fill="#363E49"/>
<path d="M12.1779 24.2536C14.617 24.2536 16.9629 23.5245 18.962 22.145C19.1747 21.9982 19.2284 21.7064 19.082 21.4932C18.9355 21.28 18.6445 21.2263 18.4317 21.373C16.5892 22.6444 14.4267 23.3164 12.1779 23.3164C6.09332 23.3164 1.14316 18.3551 1.14316 12.2568C1.14316 6.15856 6.09332 1.19726 12.1779 1.19726C18.2625 1.19726 23.2127 6.15856 23.2127 12.2568C23.2127 14.5106 22.5422 16.678 21.2736 18.5247C21.1272 18.7378 21.1809 19.0296 21.3936 19.1764C21.6062 19.3231 21.8974 19.2693 22.0439 19.0562C23.4203 17.0525 24.1478 14.7013 24.1478 12.2568C24.1478 5.62193 18.7995 0.26001 12.1779 0.26001C5.5579 0.26001 0.208008 5.62034 0.208008 12.2568C0.208008 18.8917 5.55631 24.2536 12.1779 24.2536Z" fill="#363E49"/>
</svg>
