<svg width="17" height="17" viewBox="0 0 17 17" fill="none" xmlns="http://www.w3.org/2000/svg">
<g clip-path="url(#clip0)">
<path d="M8.45386 16.212C12.8721 16.212 16.4539 12.6303 16.4539 8.21198C16.4539 3.7937 12.8721 0.211975 8.45386 0.211975C4.03558 0.211975 0.453857 3.7937 0.453857 8.21198C0.453857 12.6303 4.03558 16.212 8.45386 16.212Z" fill="#F0F0F0"/>
<path d="M2.10765 3.34143C1.47924 4.15902 1.0054 5.10137 0.729492 6.12509H4.8913L2.10765 3.34143Z" fill="#0052B4"/>
<path d="M16.1784 6.1251C15.9024 5.10141 15.4286 4.15906 14.8002 3.34147L12.0166 6.1251H16.1784Z" fill="#0052B4"/>
<path d="M0.729492 10.299C1.00543 11.3227 1.47927 12.265 2.10765 13.0826L4.89121 10.299H0.729492Z" fill="#0052B4"/>
<path d="M13.3245 1.86577C12.5069 1.23736 11.5646 0.763517 10.5409 0.487579V4.64936L13.3245 1.86577Z" fill="#0052B4"/>
<path d="M3.58337 14.5582C4.40097 15.1866 5.34331 15.6604 6.367 15.9364V11.7746L3.58337 14.5582Z" fill="#0052B4"/>
<path d="M6.36697 0.487579C5.34328 0.763517 4.40094 1.23736 3.58337 1.86574L6.36697 4.64933V0.487579Z" fill="#0052B4"/>
<path d="M10.5409 15.9364C11.5646 15.6604 12.5069 15.1866 13.3245 14.5582L10.5409 11.7746V15.9364Z" fill="#0052B4"/>
<path d="M12.0166 10.299L14.8002 13.0826C15.4286 12.2651 15.9024 11.3227 16.1784 10.299H12.0166Z" fill="#0052B4"/>
<path d="M16.3861 7.16851H9.49739H9.49736V0.279694C9.15576 0.235225 8.80751 0.211975 8.45386 0.211975C8.10014 0.211975 7.75195 0.235225 7.41039 0.279694V7.16844V7.16848H0.521576C0.477107 7.51007 0.453857 7.85832 0.453857 8.21198C0.453857 8.56569 0.477107 8.91388 0.521576 9.25544H7.41033H7.41036V16.1443C7.75195 16.1887 8.10014 16.212 8.45386 16.212C8.80751 16.212 9.15576 16.1888 9.49733 16.1443V9.25551V9.25548H16.3861C16.4306 8.91388 16.4539 8.56569 16.4539 8.21198C16.4539 7.85832 16.4306 7.51007 16.3861 7.16851Z" fill="#D80027"/>
<path d="M10.5408 10.299L14.1106 13.8689C14.2748 13.7047 14.4315 13.5331 14.5809 13.3553L11.5246 10.299H10.5408V10.299Z" fill="#D80027"/>
<path d="M6.3669 10.299H6.36684L2.797 13.8688C2.96112 14.033 3.13272 14.1896 3.31059 14.3391L6.3669 11.2827V10.299Z" fill="#D80027"/>
<path d="M6.36691 6.12507V6.12501L2.79703 2.5551C2.63284 2.71922 2.47622 2.89082 2.32678 3.06869L5.38313 6.12504H6.36691V6.12507Z" fill="#D80027"/>
<path d="M10.5408 6.12508L14.1107 2.55514C13.9466 2.39095 13.775 2.23433 13.5971 2.08492L10.5408 5.14127V6.12508Z" fill="#D80027"/>
</g>
<defs>
<clipPath id="clip0">
<rect width="16" height="16" fill="white" transform="translate(0.453857 0.211975)"/>
</clipPath>
</defs>
</svg>
