<svg width="16" height="17" viewBox="0 0 16 17" fill="none" xmlns="http://www.w3.org/2000/svg">
<g clip-path="url(#clip0)">
<path d="M8 16.212C12.4183 16.212 16 12.6303 16 8.21198C16 3.7937 12.4183 0.211975 8 0.211975C3.58172 0.211975 0 3.7937 0 8.21198C0 12.6303 3.58172 16.212 8 16.212Z" fill="#F0F0F0"/>
<path d="M10.7826 8.21196C10.7826 8.90762 9.53678 10.6467 8 10.6467C6.46322 10.6467 5.21741 8.90762 5.21741 8.21196C5.21741 6.67515 6.46322 5.42937 8 5.42937C9.53678 5.42937 10.7826 6.67515 10.7826 8.21196Z" fill="#D80027"/>
<path d="M10.7826 8.21198C10.7826 9.74879 9.53678 10.9946 8 10.9946C6.46322 10.9946 5.21741 9.74879 5.21741 8.21198" fill="#0052B4"/>
<path d="M11.6891 9.93369L10.9513 10.6715L11.4432 11.1634L12.181 10.4256L11.6891 9.93369Z" fill="black"/>
<path d="M10.4593 11.1635L9.72144 11.9013L10.2133 12.3932L10.9512 11.6554L10.4593 11.1635Z" fill="black"/>
<path d="M13.1651 11.409L12.4272 12.1469L12.9191 12.6388L13.657 11.9009L13.1651 11.409Z" fill="black"/>
<path d="M11.9351 12.6391L11.1973 13.3769L11.6892 13.8688L12.427 13.131L11.9351 12.6391Z" fill="black"/>
<path d="M12.427 10.6714L11.6892 11.4093L12.1811 11.9012L12.9189 11.1633L12.427 10.6714Z" fill="black"/>
<path d="M11.1974 11.9012L10.4596 12.6391L10.9515 13.131L11.6893 12.3931L11.1974 11.9012Z" fill="black"/>
<path d="M10.4599 3.7847L12.4275 5.75227L12.9194 5.26037L10.9518 3.2928L10.4599 3.7847Z" fill="black"/>
<path d="M9.722 4.52283L10.4598 5.26067L10.9517 4.76879L10.2139 4.03095L9.722 4.52283Z" fill="black"/>
<path d="M10.9515 5.75245L11.6893 6.49029L12.1812 5.99841L11.4434 5.26058L10.9515 5.75245Z" fill="black"/>
<path d="M11.197 3.04712L11.9348 3.78496L12.4267 3.29306L11.6889 2.55522L11.197 3.04712Z" fill="black"/>
<path d="M12.4272 4.2769L13.165 5.01474L13.6569 4.52284L12.9191 3.78501L12.4272 4.2769Z" fill="black"/>
<path d="M4.80266 13.377L2.83508 11.4094L2.34318 11.9013L4.31076 13.8689L4.80266 13.377Z" fill="black"/>
<path d="M5.54033 12.6389L4.80249 11.9011L4.31061 12.393L5.04845 13.1308L5.54033 12.6389Z" fill="black"/>
<path d="M4.31071 11.4093L3.57288 10.6715L3.08098 11.1634L3.81881 11.9012L4.31071 11.4093Z" fill="black"/>
<path d="M6.27824 11.9012L4.31067 9.93359L3.81877 10.4255L5.78634 12.3931L6.27824 11.9012Z" fill="black"/>
<path d="M2.83504 5.01457L4.80261 3.047L4.31071 2.5551L2.34314 4.52267L2.83504 5.01457Z" fill="black"/>
<path d="M3.57259 5.7522L5.54016 3.78463L5.04826 3.29273L3.08069 5.2603L3.57259 5.7522Z" fill="black"/>
<path d="M4.31087 6.4904L6.27844 4.52283L5.78657 4.03095L3.81899 5.99852L4.31087 6.4904Z" fill="black"/>
</g>
<defs>
<clipPath id="clip0">
<rect width="16" height="16" fill="white" transform="translate(0 0.211975)"/>
</clipPath>
</defs>
</svg>
