<svg width="25" height="25" viewBox="0 0 25 25" fill="none" xmlns="http://www.w3.org/2000/svg">
<path d="M22.4969 24.1501H1.85893C0.948607 24.1501 0.208008 23.4078 0.208008 22.4955V19.4715C0.208008 19.1318 0.482855 18.8563 0.821849 18.8563H8.53926C8.78971 18.8563 9.01499 19.0088 9.1086 19.2416L9.57548 20.4026H14.7693L15.2362 19.2416C15.3298 19.0088 15.5551 18.8563 15.8056 18.8563H23.534C23.873 18.8563 24.1478 19.1318 24.1478 19.4715V22.4955C24.1478 23.4078 23.4072 24.1501 22.4969 24.1501ZM1.43569 20.0868V22.4955C1.43569 22.7294 1.62552 22.9197 1.85893 22.9197H22.4969C22.7303 22.9197 22.9201 22.7294 22.9201 22.4955V20.0868H16.2199L15.7531 21.2478C15.6595 21.4806 15.4342 21.6331 15.1837 21.6331H9.16103C8.91058 21.6331 8.6853 21.4806 8.59169 21.2478L8.12482 20.0868H1.43569Z" fill="#363E49"/>
<path d="M20.8712 7.36997H19.12V6.00781C19.12 5.72353 18.9256 5.47621 18.6498 5.40967L17.5218 5.13753C17.459 4.96302 17.3871 4.79137 17.3068 4.62346L17.9077 3.6467C18.0579 3.40251 18.0198 3.08674 17.8159 2.88546L16.3603 1.44897C16.1612 1.25241 15.8546 1.21555 15.6147 1.35925L14.6188 1.95602C14.4447 1.87383 14.2667 1.80057 14.0854 1.73654L13.8097 0.623499C13.7418 0.34911 13.4961 0.156494 13.214 0.156494H11.1555C10.8735 0.156494 10.6277 0.34911 10.5598 0.623447L10.2854 1.73126C10.104 1.79478 9.92565 1.86763 9.75137 1.94935L8.75091 1.34987C8.51095 1.20606 8.20439 1.24298 8.00525 1.43959L6.54968 2.87608C6.34573 3.07736 6.30767 3.39312 6.45786 3.63732L7.05594 4.60952C6.97517 4.77717 6.90289 4.94861 6.83951 5.12297L5.70626 5.39639C5.43044 5.46293 5.23611 5.7102 5.23611 5.99454V7.36997H3.48487C2.58227 7.36997 1.84796 8.10593 1.84796 9.01056V15.3162C1.84796 15.656 2.12281 15.9314 2.4618 15.9314C2.8008 15.9314 3.07564 15.656 3.07564 15.3162V9.01056C3.07564 8.78441 3.25923 8.60041 3.48487 8.60041H20.8712C21.0969 8.60041 21.2805 8.78441 21.2805 9.01056V15.3162C21.2805 15.656 21.5553 15.9314 21.8943 15.9314C22.2333 15.9314 22.5082 15.656 22.5082 15.3162V9.01056C22.5081 8.10593 21.7738 7.36997 20.8712 7.36997ZM10.6203 7.01688C10.6203 6.15429 11.3191 5.45258 12.178 5.45258C13.037 5.45258 13.7358 6.15434 13.7358 7.01688C13.7358 7.13726 13.7224 7.25523 13.696 7.36997H10.6601C10.6337 7.25523 10.6203 7.13731 10.6203 7.01688ZM17.8923 7.36997H14.9409C14.9555 7.25369 14.9635 7.13603 14.9635 7.01688C14.9635 5.47585 13.7139 4.22213 12.178 4.22213C10.6422 4.22213 9.39258 5.47585 9.39258 7.01688C9.39258 7.13603 9.40061 7.25369 9.41514 7.36997H6.46379V6.47923L7.45969 6.23893C7.67387 6.18725 7.84396 6.02453 7.90545 5.81258C7.99834 5.49226 8.1296 5.18137 8.29554 4.88852C8.40624 4.69319 8.40189 4.453 8.28429 4.26182L7.75961 3.40886L8.52839 2.65014L9.41166 3.17939C9.59842 3.29125 9.83035 3.29576 10.0212 3.19113C10.3197 3.02748 10.6366 2.89828 10.963 2.80712C11.176 2.7476 11.3407 2.57785 11.394 2.36273L11.6356 1.38694H12.7339L12.9766 2.36683C13.0297 2.58134 13.1935 2.75073 13.4058 2.81071C13.732 2.90289 14.0485 3.03301 14.3464 3.19743C14.5376 3.30289 14.7703 3.29879 14.9575 3.18656L15.8372 2.65952L16.606 3.41819L16.0791 4.27474C15.9619 4.46535 15.9571 4.70478 16.0669 4.89985C16.232 5.19331 16.3624 5.50456 16.4543 5.82509C16.5153 6.03791 16.6858 6.20146 16.9006 6.25329L17.8923 6.49251V7.36997Z" fill="#363E49"/>
<path d="M6.28552 14.5082L10.0167 16.4344V15.2545L7.78544 14.1335L10.0167 13.0125V11.8326L6.28552 13.7588V14.5082Z" fill="#363E49"/>
<path d="M10.6682 16.4981H11.7953L13.9091 11.0128H12.7745L10.6682 16.4981Z" fill="#363E49"/>
<path d="M14.3389 11.8339V13.0134L16.5858 14.1337L14.3389 15.254V16.4336L18.0701 14.5156V13.7519L14.3389 11.8339Z" fill="#363E49"/>
<path d="M21.9018 17.9838C22.2691 17.9838 22.5668 17.6854 22.5668 17.3172C22.5668 16.949 22.2691 16.6505 21.9018 16.6505C21.5345 16.6505 21.2368 16.949 21.2368 17.3172C21.2368 17.6854 21.5345 17.9838 21.9018 17.9838Z" fill="#363E49"/>
<path d="M2.46358 17.9838C2.83084 17.9838 3.12857 17.6854 3.12857 17.3172C3.12857 16.949 2.83084 16.6505 2.46358 16.6505C2.09631 16.6505 1.79858 16.949 1.79858 17.3172C1.79858 17.6854 2.09631 17.9838 2.46358 17.9838Z" fill="#363E49"/>
</svg>
